<svg xmlns="http://www.w3.org/2000/svg" viewBox="0.70 28.20 730.65 72.90" aria-hidden="true" focusable="false">
  <path fill="hsl(40 66% 30%)" d="M17.60 32L17.60 32Q17.70 31.05 18.53 30.52Q19.35 30 20.75 30L20.75 30L53.55 30Q56.05 30 57.60 29.10Q59.15 28.20 60.70 28.20L60.70 28.20Q62.80 28.20 63.25 30.50L63.25 30.50L65.30 44.10Q65.60 45.40 65.10 46.10Q64.60 46.80 63.60 46.90L63.60 46.90Q62.35 47 61.58 46.27Q60.80 45.55 60.05 44L60.05 44L59.05 41.20Q58.25 38.50 57.05 36.80Q55.85 35.10 54.08 34.27Q52.30 33.45 49.75 33.45L49.75 33.45L36.25 33.45Q35.30 36.75 34.18 40.92Q33.05 45.10 31.78 49.77Q30.50 54.45 29.23 59.35Q27.95 64.25 26.70 69Q25.45 73.75 24.35 78.05Q23.25 82.35 22.35 85.88Q21.45 89.40 20.95 91.80L20.95 91.80Q20.50 93.35 20.83 94.28Q21.15 95.20 23 95.45L23 95.45L26.30 95.95Q27.75 96.15 28.38 96.63Q29 97.10 29 97.80L29 97.80Q29 98.80 28.15 99.40Q27.30 100 25.35 100L25.35 100L3.15 100Q1.75 100 1.20 99.50Q0.65 99 0.70 98.15L0.70 98.15Q0.75 97.30 1.45 96.75Q2.15 96.20 3.75 95.85L3.75 95.85L6.15 95.35Q7.60 95.05 8.43 94.20Q9.25 93.35 9.70 91.70L9.70 91.70Q10.60 88.75 11.65 85Q12.70 81.25 13.85 77.05Q15 72.85 16.15 68.42Q17.30 64 18.43 59.65Q19.55 55.30 20.58 51.27Q21.60 47.25 22.43 43.82Q23.25 40.40 23.80 37.95L23.80 37.95Q24.20 36.35 23.83 35.60Q23.45 34.85 22.30 34.55L22.30 34.55L19.80 33.90Q18.70 33.55 18.13 33.15Q17.55 32.75 17.60 32ZM21.95 68.15L23.10 64.65L40.85 64.65Q43.10 64.65 44.48 63.27Q45.85 61.90 46.20 58.10L46.20 58.10Q46.40 57.20 46.85 56.77Q47.30 56.35 48.05 56.35L48.05 56.35Q49.05 56.35 49.58 56.90Q50.10 57.45 50.25 58.40L50.25 58.40L52.75 73.25Q53 74.60 52.40 75.22Q51.80 75.85 50.80 75.90L50.80 75.90Q50 75.90 49.43 75.45Q48.85 75 48.35 74L48.35 74Q47.60 71.85 46.70 70.58Q45.80 69.30 44.48 68.72Q43.15 68.15 41.05 68.15L41.05 68.15L21.95 68.15ZM91.95 53.15L91.95 53.15Q98.15 53.30 102.53 56.15Q106.90 59 108.78 64.20Q110.65 69.40 109.35 76.70L109.35 76.70Q108.35 82.15 105.78 86.70Q103.20 91.25 99.40 94.53Q95.60 97.80 90.95 99.53Q86.30 101.25 81.10 101.05L81.10 101.05Q75.05 100.85 70.75 98.03Q66.45 95.20 64.63 89.95Q62.80 84.70 64.05 77.50L64.05 77.50Q65.10 72 67.63 67.45Q70.15 62.90 73.88 59.65Q77.60 56.40 82.20 54.67Q86.80 52.95 91.95 53.15ZM81.30 96.80L81.30 96.80Q83.45 97.05 85.55 96.30Q87.65 95.55 89.58 93.92Q91.50 92.30 93.13 89.83Q94.75 87.35 96.03 84.05Q97.30 80.75 98.15 76.70L98.15 76.70Q99.45 70.45 99 66.25Q98.55 62.05 96.68 59.85Q94.80 57.65 91.75 57.40L91.75 57.40Q89.60 57.15 87.58 57.90Q85.55 58.65 83.68 60.27Q81.80 61.90 80.20 64.38Q78.60 66.85 77.35 70.15Q76.10 73.45 75.25 77.45L75.25 77.45Q73.95 83.75 74.38 87.92Q74.80 92.10 76.60 94.30Q78.40 96.50 81.30 96.80ZM119.25 63.40L119.25 63.40Q118.65 63.10 118.65 62.32Q118.65 61.55 119.25 60.40L119.25 60.40Q120.45 58.20 122.40 56.57Q124.35 54.95 126.75 54.07Q129.15 53.20 131.80 53.20L131.80 53.20Q134.35 53.20 135.78 54.42Q137.20 55.65 137.20 58.10L137.20 58.10Q137.20 60.20 136.30 63Q135.40 65.80 134.23 68.78Q133.05 71.75 132.10 74.47Q131.15 77.20 131.05 79.10L131.05 79.10L130.25 79.05Q131.85 73.10 134.30 68.33Q136.75 63.55 139.70 60.17Q142.65 56.80 145.83 55Q149 53.20 152.05 53.20L152.05 53.20Q155.85 53.20 157.78 55.32Q159.70 57.45 159.65 60.95L159.65 60.95Q159.55 63.60 158.60 65.50Q157.65 67.40 156.15 68.40Q154.65 69.40 152.90 69.40L152.90 69.40Q151 69.40 150.10 68.50Q149.20 67.60 149.20 66.40L149.20 66.40Q149.20 65.35 149.53 64.35Q149.85 63.35 149.85 62.25L149.85 62.25Q149.85 61 149.28 60.25Q148.70 59.50 147.40 59.50L147.40 59.50Q145.20 59.50 142.38 62.13Q139.55 64.75 136.68 69.85Q133.80 74.95 131.40 82.50L131.40 82.50Q130.25 86 129.70 88.08Q129.15 90.15 129.15 91.80L129.15 91.80Q129.15 93.05 129.65 93.72Q130.15 94.40 130.65 95Q131.15 95.60 131.15 96.75L131.15 96.75Q131.15 97.95 130.08 98.95Q129 99.95 126.93 100.53Q124.85 101.10 121.85 101.10L121.85 101.10Q119.50 101.10 118.40 100.05Q117.30 99 117.35 96.85Q117.40 94.70 118.50 91.45L118.50 91.45L126.50 67.25Q127.80 63.35 127.43 61.75Q127.05 60.15 125.70 60.15L125.70 60.15Q124.90 60.15 123.95 60.67Q123 61.20 121.70 62.50L121.70 62.50Q120.85 63.20 120.30 63.42Q119.75 63.65 119.25 63.40ZM174.90 73.45L176.65 72.80Q176.95 71.10 177.53 68.85Q178.10 66.60 178.93 63.65Q179.75 60.70 180.83 56.97Q181.90 53.25 183.20 48.65L183.20 48.65Q184.65 43.40 186.73 40Q188.80 36.60 191.45 34.95Q194.10 33.30 197.15 33.30L197.15 33.30Q198.85 33.30 200.43 34.17Q202.00 35.05 203.53 36.17Q205.05 37.30 206.65 38.17Q208.25 39.05 210.00 39.05L210.00 39.05Q212.75 39.05 214.28 37.63Q215.80 36.20 215.80 34L215.80 34Q215.80 31.45 213.08 29.83Q210.35 28.20 204.80 28.20L204.80 28.20Q196.30 28.20 189.88 30.92Q183.45 33.65 179.10 39.05Q174.75 44.45 172.40 52.50L172.40 52.50L160.95 93.05Q160.25 95.50 160.28 97.28Q160.30 99.05 161.23 100Q162.15 100.95 164.05 100.95L164.05 100.95Q166.70 100.95 168.63 100.38Q170.55 99.80 171.60 98.78Q172.65 97.75 172.65 96.40L172.65 96.40Q172.65 95.10 172.33 94.17Q172.00 93.25 172.00 91.90L172.00 91.90Q172.00 91.10 172.18 90.05Q172.35 89 172.90 86.75Q173.45 84.50 174.55 80.30L174.55 80.30Q175.80 75.50 178.25 71.40Q180.70 67.30 183.78 64.30Q186.85 61.30 190.05 59.72Q193.25 58.15 196.05 58.40L196.05 58.40Q198.60 58.60 199.75 60.10Q200.90 61.60 200.45 64.15L200.45 64.15Q199.90 67.55 196.95 70.53Q194.00 73.50 187.93 76Q181.85 78.50 171.85 80.45L171.85 80.45L171.80 83.75Q184.55 81.45 192.95 78.28Q201.35 75.10 205.70 71.17Q210.05 67.25 210.55 62.85L210.55 62.85Q211.10 58.40 208.55 55.90Q206.00 53.40 200.95 53.20L200.95 53.20Q196.70 53 192.73 54.45Q188.75 55.90 185.28 58.65Q181.80 61.40 179.15 65.20Q176.50 69 174.90 73.45L174.90 73.45ZM191.95 77.70L183.25 79.95L187.50 93.20Q188.75 97.20 190.53 99.08Q192.30 100.95 195.50 101.05L195.50 101.05Q198.25 101.10 200.50 100.08Q202.75 99.05 204.30 97.15Q205.85 95.25 206.45 92.65L206.45 92.65Q206.70 91.60 206.45 91.05Q206.20 90.50 205.65 90.35L205.65 90.35Q205.15 90.25 204.65 90.47Q204.15 90.70 203.45 91.65L203.45 91.65Q202.80 92.50 201.95 93.22Q201.10 93.95 199.95 93.80L199.95 93.80Q198.70 93.70 197.68 92.60Q196.65 91.50 195.75 88.65L195.75 88.65L191.95 77.70ZM257.70 65.60L249.85 86.95Q248.40 90.85 248.80 92.45Q249.20 94.05 250.50 94.05L250.50 94.05Q251.35 94.05 252.28 93.53Q253.20 93 254.50 91.70L254.50 91.70Q255.35 90.95 255.90 90.75Q256.45 90.55 256.95 90.80L256.95 90.80Q257.55 91.10 257.53 91.88Q257.50 92.65 256.95 93.80L256.95 93.80Q255.15 97.10 251.78 99.05Q248.40 101 244.35 101L244.35 101Q241.25 101 239.65 99.58Q238.05 98.15 238.00 95.45Q237.95 92.75 239.35 88.90L239.35 88.90L247.45 67.25Q248.90 63.35 248.50 61.75Q248.10 60.15 246.75 60.15L246.75 60.15Q245.95 60.15 245.03 60.67Q244.10 61.20 242.75 62.50L242.75 62.50Q241.90 63.20 241.35 63.42Q240.80 63.65 240.30 63.40L240.30 63.40Q239.70 63.10 239.73 62.32Q239.75 61.55 240.35 60.40L240.35 60.40Q242.10 57.15 245.43 55.17Q248.75 53.20 252.80 53.20L252.80 53.20Q255.70 53.20 257.30 54.60Q258.90 56 259.05 58.77Q259.20 61.55 257.70 65.60L257.70 65.60ZM256.50 43.65L256.50 43.65Q253.25 43.65 251.55 41.88Q249.85 40.10 250.15 37.60L250.15 37.60Q250.35 35.60 251.60 33.95Q252.85 32.30 254.90 31.30Q256.95 30.30 259.55 30.30L259.55 30.30Q262.95 30.30 264.53 32.08Q266.10 33.85 265.75 36.40L265.75 36.40Q265.60 38.40 264.33 40.05Q263.05 41.70 261.05 42.67Q259.05 43.65 256.50 43.65ZM271.50 63.40L271.50 63.40Q270.90 63.10 270.93 62.32Q270.95 61.55 271.55 60.40L271.55 60.40Q273.35 57.10 276.73 55.15Q280.10 53.20 284.25 53.20L284.25 53.20Q287 53.20 288.60 54.42Q290.20 55.65 290.20 58.05L290.20 58.05Q290.20 59.50 289.63 61.35Q289.05 63.20 287.98 65.82Q286.90 68.45 285.38 72.15Q283.85 75.85 281.95 81L281.95 81L281.75 78.85Q284.65 71.65 288.27 66.70Q291.90 61.75 295.77 58.77Q299.65 55.80 303.32 54.50Q307 53.20 310.05 53.20L310.05 53.20Q314.25 53.20 316.02 54.97Q317.80 56.75 317.60 60.07Q317.40 63.40 315.80 67.95L315.80 67.95L309.10 86.95Q307.70 90.90 308.07 92.47Q308.45 94.05 309.80 94.05L309.80 94.05Q310.60 94.05 311.52 93.55Q312.45 93.05 313.80 91.75L313.80 91.75Q314.65 91 315.20 90.80Q315.75 90.60 316.25 90.85L316.25 90.85Q316.85 91.10 316.82 91.90Q316.80 92.70 316.20 93.80L316.20 93.80Q314.40 97.10 311.05 99.08Q307.70 101.05 303.60 101.05L303.60 101.05Q300.50 101.05 298.93 99.63Q297.35 98.20 297.30 95.50Q297.25 92.80 298.55 88.95L298.55 88.95L305.40 69.40Q307.20 64.40 306.65 62.40Q306.10 60.40 303.35 60.40L303.35 60.40Q301.30 60.40 298.63 61.75Q295.95 63.10 293.13 65.80Q290.30 68.50 287.73 72.58Q285.15 76.65 283.20 82.10L283.20 82.10Q282.10 85.20 281.48 87.08Q280.85 88.95 280.60 90.05Q280.35 91.15 280.35 91.90L280.35 91.90Q280.35 93.25 280.75 94.15Q281.15 95.05 281.15 96.35L281.15 96.35Q281.15 98.50 278.88 99.78Q276.60 101.05 272.70 101.05L272.70 101.05Q269.55 101.05 268.90 98.67Q268.25 96.30 270.05 91.30L270.05 91.30L278.65 67.25Q280.05 63.35 279.68 61.75Q279.30 60.15 277.95 60.15L277.95 60.15Q277.15 60.15 276.23 60.67Q275.30 61.20 273.95 62.50L273.95 62.50Q273.10 63.20 272.55 63.42Q272 63.65 271.50 63.40ZM356.55 59.65L356.55 59.65L352.70 58.85Q351.85 58.60 351.43 58.07Q351 57.55 351 56.85L351 56.85Q351 55.95 351.75 55.42Q352.50 54.90 353.85 54.90L353.85 54.90L358.20 54.90Q359.40 54.90 360.32 54.40Q361.25 53.90 362.05 53L362.05 53L367.30 45.70Q368 44.90 368.70 44.60Q369.40 44.30 370.20 44.30L370.20 44.30Q371.15 44.30 371.63 44.77Q372.10 45.25 372.10 46.15L372.10 46.15Q372.10 46.70 371.95 47.63Q371.80 48.55 371.40 49.75L371.40 49.75L360.50 85.45Q358.95 90.55 359.75 92.25Q360.55 93.95 363.30 93.95L363.30 93.95Q365.60 93.95 367.65 92.95Q369.70 91.95 371.85 89.50L371.85 89.50Q372.50 88.85 372.93 88.63Q373.35 88.40 373.80 88.40L373.80 88.40Q374.40 88.40 374.75 88.80Q375.10 89.20 375 89.90L375 89.90Q374.90 91.50 373.45 93.45Q372 95.40 369.55 97.13Q367.10 98.85 363.90 99.95Q360.70 101.05 357 101.05L357 101.05Q353.15 101.05 351.18 99.45Q349.20 97.85 349.02 94.78Q348.85 91.70 350.20 87.15L350.20 87.15L357.35 64.50Q358.15 61.95 357.95 60.95Q357.75 59.95 356.55 59.65ZM377.65 59.40L365.05 59.40L366.45 55L380.05 55Q381.90 55 381.90 56.60L381.90 56.60Q381.90 57.90 380.75 58.65Q379.60 59.40 377.65 59.40L377.65 59.40ZM397.20 82.10L397.20 82.10Q399.15 76.65 401.73 72.58Q404.30 68.50 407.13 65.80Q409.95 63.10 412.63 61.75Q415.30 60.40 417.35 60.40L417.35 60.40Q420.10 60.40 420.63 62.40Q421.15 64.40 419.40 69.40L419.40 69.40L412.55 88.95Q411.25 92.80 411.30 95.50Q411.35 98.20 412.93 99.63Q414.50 101.05 417.60 101.05L417.60 101.05Q421.70 101.05 425.05 99.08Q428.40 97.10 430.20 93.80L430.20 93.80Q430.80 92.70 430.82 91.90Q430.85 91.10 430.25 90.85L430.25 90.85Q429.75 90.60 429.20 90.80Q428.65 91 427.80 91.75L427.80 91.75Q426.45 93.05 425.52 93.55Q424.60 94.05 423.80 94.05L423.80 94.05Q422.45 94.05 422.07 92.47Q421.70 90.90 423.10 86.95L423.10 86.95L429.80 67.95Q431.40 63.40 431.60 60.07Q431.80 56.75 430.02 54.97Q428.25 53.20 424.05 53.20L424.05 53.20Q420.35 53.20 415.55 55.25Q410.75 57.30 405.98 62.10Q401.20 66.90 397.40 75.20L397.40 75.20L398.40 75.50L405.90 48.65Q407.35 43.40 409.45 40Q411.55 36.60 414.18 34.95Q416.80 33.30 419.85 33.30L419.85 33.30Q421.55 33.30 423.13 34.17Q424.70 35.05 426.23 36.17Q427.75 37.30 429.35 38.17Q430.95 39.05 432.75 39.05L432.75 39.05Q435.45 39.05 436.98 37.63Q438.50 36.20 438.50 34L438.50 34Q438.50 31.45 435.77 29.83Q433.05 28.20 427.50 28.20L427.50 28.20Q419 28.20 412.57 30.92Q406.15 33.65 401.80 39.05Q397.45 44.45 395.15 52.50L395.15 52.50L383.65 93.20Q382.95 95.60 382.98 97.38Q383 99.15 383.93 100.10Q384.85 101.05 386.75 101.05L386.75 101.05Q390.70 101.05 393.02 99.80Q395.35 98.55 395.35 96.50L395.35 96.50Q395.35 95.20 395.02 94.28Q394.70 93.35 394.70 92.05L394.70 92.05Q394.70 91.10 394.98 89.67Q395.25 88.25 395.80 86.33Q396.35 84.40 397.20 82.10ZM446.50 82.70L446.10 79.35Q446.10 79.35 447.95 78.65Q449.80 77.95 452.82 76.83Q455.85 75.70 459.32 74.40Q462.80 73.10 466.13 71.83Q469.45 70.55 471.95 69.60L471.95 69.60L470.80 71.20Q471.20 69.95 471.40 68.40Q471.60 66.85 471.65 64.75L471.65 64.75Q471.65 61.40 470.20 59.22Q468.75 57.05 466.35 57.05L466.35 57.05Q464 57.05 461.48 58.82Q458.95 60.60 456.75 63.75Q454.55 66.90 453.05 71.10Q451.55 75.30 451.20 80.15L451.20 80.15Q450.70 87.50 453.50 91.17Q456.30 94.85 461.45 94.85L461.45 94.85Q464.55 94.85 467.45 93.67Q470.35 92.50 472.68 90.25Q475 88 476.25 84.80L476.25 84.80Q477 83.70 477.58 83.30Q478.15 82.90 478.80 82.90L478.80 82.90Q479.65 82.95 480.13 83.63Q480.60 84.30 480.20 85.85L480.20 85.85Q479.50 89.70 476.60 93.17Q473.70 96.65 468.78 98.85Q463.85 101.05 457.05 101.05L457.05 101.05Q451.25 101.05 447.45 98.88Q443.65 96.70 441.95 92.67Q440.25 88.65 440.60 83.05L440.60 83.05Q441 77.05 443.38 71.65Q445.75 66.25 449.63 62.10Q453.50 57.95 458.38 55.55Q463.25 53.15 468.60 53.15L468.60 53.15Q472.55 53.15 475.23 54.70Q477.90 56.25 479.30 58.85Q480.70 61.45 480.95 64.65L480.95 64.65Q481 65.40 481.38 65.90Q481.75 66.40 482.35 66.40L482.35 66.40Q483.10 66.35 483.45 66.67Q483.80 67 483.80 67.65L483.80 67.65Q483.80 68.40 483.13 69.08Q482.45 69.75 480.55 70.45L480.55 70.45Q478.50 71.15 475.23 72.33Q471.95 73.50 468.13 74.90Q464.30 76.30 460.48 77.67Q456.65 79.05 453.50 80.17Q450.35 81.30 448.43 82Q446.50 82.70 446.50 82.70L446.50 82.70ZM513.55 63.40L513.55 63.40Q512.95 63.10 512.95 62.32Q512.95 61.55 513.55 60.40L513.55 60.40Q514.75 58.20 516.70 56.57Q518.65 54.95 521.05 54.07Q523.45 53.20 526.10 53.20L526.10 53.20Q528.65 53.20 530.08 54.42Q531.50 55.65 531.50 58.10L531.50 58.10Q531.50 60.20 530.60 63Q529.70 65.80 528.52 68.78Q527.35 71.75 526.40 74.47Q525.45 77.20 525.35 79.10L525.35 79.10L524.55 79.05Q526.15 73.10 528.60 68.33Q531.05 63.55 534 60.17Q536.95 56.80 540.13 55Q543.30 53.20 546.35 53.20L546.35 53.20Q550.15 53.20 552.08 55.32Q554 57.45 553.95 60.95L553.95 60.95Q553.85 63.60 552.90 65.50Q551.95 67.40 550.45 68.40Q548.95 69.40 547.20 69.40L547.20 69.40Q545.30 69.40 544.40 68.50Q543.50 67.60 543.50 66.40L543.50 66.40Q543.50 65.35 543.83 64.35Q544.15 63.35 544.15 62.25L544.15 62.25Q544.15 61 543.58 60.25Q543 59.50 541.70 59.50L541.70 59.50Q539.50 59.50 536.67 62.13Q533.85 64.75 530.98 69.85Q528.10 74.95 525.70 82.50L525.70 82.50Q524.55 86 524 88.08Q523.45 90.15 523.45 91.80L523.45 91.80Q523.45 93.05 523.95 93.72Q524.45 94.40 524.95 95Q525.45 95.60 525.45 96.75L525.45 96.75Q525.45 97.95 524.38 98.95Q523.30 99.95 521.23 100.53Q519.15 101.10 516.15 101.10L516.15 101.10Q513.80 101.10 512.70 100.05Q511.60 99 511.65 96.85Q511.70 94.70 512.80 91.45L512.80 91.45L520.80 67.25Q522.10 63.35 521.73 61.75Q521.35 60.15 520 60.15L520 60.15Q519.20 60.15 518.25 60.67Q517.30 61.20 516 62.50L516 62.50Q515.15 63.20 514.60 63.42Q514.05 63.65 513.55 63.40ZM583.70 53.15L583.70 53.15Q589.90 53.30 594.28 56.15Q598.65 59 600.53 64.20Q602.40 69.40 601.10 76.70L601.10 76.70Q600.10 82.15 597.53 86.70Q594.95 91.25 591.15 94.53Q587.35 97.80 582.70 99.53Q578.05 101.25 572.85 101.05L572.85 101.05Q566.80 100.85 562.50 98.03Q558.20 95.20 556.38 89.95Q554.55 84.70 555.80 77.50L555.80 77.50Q556.85 72 559.38 67.45Q561.90 62.90 565.63 59.65Q569.35 56.40 573.95 54.67Q578.55 52.95 583.70 53.15ZM573.05 96.80L573.05 96.80Q575.20 97.05 577.30 96.30Q579.40 95.55 581.33 93.92Q583.25 92.30 584.88 89.83Q586.50 87.35 587.78 84.05Q589.05 80.75 589.90 76.70L589.90 76.70Q591.20 70.45 590.75 66.25Q590.30 62.05 588.43 59.85Q586.55 57.65 583.50 57.40L583.50 57.40Q581.35 57.15 579.33 57.90Q577.30 58.65 575.43 60.27Q573.55 61.90 571.95 64.38Q570.35 66.85 569.10 70.15Q567.85 73.45 567.00 77.45L567.00 77.45Q565.70 83.75 566.13 87.92Q566.55 92.10 568.35 94.30Q570.15 96.50 573.05 96.80ZM653.40 62.55L647.20 87Q646.15 91.05 646.50 92.60Q646.85 94.15 648.05 94.15L648.05 94.15Q648.95 94.15 649.83 93.63Q650.70 93.10 652.00 91.85L652.00 91.85Q652.85 91.05 653.40 90.85Q653.95 90.65 654.45 90.90L654.45 90.90Q655.05 91.20 655.05 91.97Q655.05 92.75 654.45 93.90L654.45 93.90Q652.65 97.15 649.33 99.10Q646.00 101.05 642.45 101.05L642.45 101.05Q639.55 101.05 638.13 99.60Q636.70 98.15 636.70 95.35L636.70 95.35Q636.70 94.20 636.90 92.80Q637.10 91.40 637.60 89.35Q638.10 87.30 639.00 84.20Q639.90 81.10 641.30 76.60L641.30 76.60L642.25 78.30Q639.50 85.55 635.60 90.65Q631.70 95.75 627.15 98.40Q622.60 101.05 617.90 101.05L617.90 101.05Q612.60 101.05 609.70 97.53Q606.80 94 607.55 86.35L607.55 86.35Q608.00 81.30 610.08 76.47Q612.15 71.65 615.53 67.42Q618.90 63.20 623.33 60Q627.75 56.80 632.98 55Q638.20 53.20 643.85 53.20L643.85 53.20Q648.15 53.20 650.95 53.80Q653.75 54.40 655.13 55.47Q656.50 56.55 656.40 57.85L656.40 57.85Q656.30 58.95 655.68 59.57Q655.05 60.20 654.38 60.82Q653.70 61.45 653.40 62.55L653.40 62.55ZM618.15 85.85L618.15 85.85Q617.65 91 618.98 93.10Q620.30 95.20 622.75 95.20L622.75 95.20Q625.05 95.20 627.63 93.40Q630.20 91.60 632.80 88.40Q635.40 85.20 637.68 81.05Q639.95 76.90 641.60 72.10Q643.25 67.30 644.00 62.30L644.00 62.30Q644.45 59.70 643.65 58.55Q642.85 57.40 641.10 57.40L641.10 57.40Q637.95 57.40 634.83 59Q631.70 60.60 628.88 63.40Q626.05 66.20 623.75 69.83Q621.45 73.45 620.00 77.58Q618.55 81.70 618.15 85.85ZM707.80 60.05L707.80 60.05L701.65 61.45Q700.90 59.30 699.45 58.25Q698.00 57.20 695.40 57.20L695.40 57.20Q692.20 57.20 689.05 58.90Q685.90 60.60 683.10 63.57Q680.30 66.55 678.08 70.33Q675.85 74.10 674.53 78.33Q673.20 82.55 673.05 86.70L673.05 86.70Q672.85 91.20 674.35 93.15Q675.85 95.10 678.30 95.10L678.30 95.10Q680.50 95.10 683.15 93.30Q685.80 91.50 688.53 88.33Q691.25 85.15 693.55 80.97Q695.85 76.80 697.25 72L697.25 72L706.05 42.90Q708.35 35.25 712.78 31.72Q717.20 28.20 723.30 28.20L723.30 28.20Q727.40 28.20 729.38 29.77Q731.35 31.35 731.35 33.50L731.35 33.50Q731.35 35.80 730.00 37.25Q728.65 38.70 726.05 38.70L726.05 38.70Q724.60 38.70 723.55 38.15Q722.50 37.60 721.58 36.88Q720.65 36.15 719.65 35.60Q718.65 35.05 717.35 35.05L717.35 35.05Q715.05 35.05 713.45 36.85Q711.85 38.65 711.60 41.15L711.60 41.15Q711.55 42.30 711.78 43.42Q712.00 44.55 712.35 45.72Q712.70 46.90 712.93 48.20Q713.15 49.50 713.15 51.02Q713.15 52.55 712.60 54.35L712.60 54.35L702.95 86.90Q701.75 90.95 702.08 92.55Q702.40 94.15 703.75 94.15L703.75 94.15Q704.55 94.15 705.48 93.63Q706.40 93.10 707.75 91.85L707.75 91.85Q708.60 91.05 709.15 90.85Q709.70 90.65 710.20 90.90L710.20 90.90Q710.80 91.20 710.78 91.97Q710.75 92.75 710.15 93.90L710.15 93.90Q709.00 96.10 707.10 97.70Q705.20 99.30 702.95 100.17Q700.70 101.05 698.30 101.05L698.30 101.05Q695.40 101.05 693.93 99.58Q692.45 98.10 692.45 95.35L692.45 95.35Q692.45 93.85 692.85 91.83Q693.25 89.80 694.15 86.58Q695.05 83.35 696.50 78.40L696.50 78.40L698.00 79.20Q694.75 86.45 690.65 91.30Q686.55 96.15 682.18 98.60Q677.80 101.05 673.55 101.05L673.55 101.05Q669.80 101.05 667.18 99.40Q664.55 97.75 663.38 94.35Q662.20 90.95 662.70 85.65L662.70 85.65Q663.25 79.10 666.20 73.28Q669.15 67.45 673.85 62.90Q678.55 58.35 684.43 55.77Q690.30 53.20 696.65 53.20L696.65 53.20Q700.00 53.20 702.33 54.07Q704.65 54.95 706.03 56.50Q707.40 58.05 707.80 60.05Z"/>
</svg>